<svg width="300" height="282" viewBox="0 0 300 282" fill="none" xmlns="http://www.w3.org/2000/svg">
<path d="M9.35225 100.256C82.3831 101.548 155.092 118.62 221.141 149.825C239.765 158.629 257.717 168.654 275.324 179.312C277.421 180.584 279.236 179.397 279.159 177.101C279.088 174.38 276.848 171.085 274.647 169.643C212.168 129.072 139.173 103.301 65.4965 93.2092C44.7127 90.3497 23.7486 88.7963 2.77421 88.4456C-0.317597 88.3835 1.58555 93.6468 2.26167 94.891C3.68085 97.4582 6.19974 100.218 9.3219 100.268L9.35225 100.256Z" fill="white"/>
<path d="M244.487 196.354C261.215 196.225 277.973 195.556 294.656 194.352C295.78 194.253 296.313 193.122 296.421 192.163C297.179 183.433 293.352 175.488 288.603 168.407C283.185 160.361 276.656 152.972 270.626 145.419C257.882 129.494 245.563 113.046 232.098 97.693C230.85 96.2553 227.956 94.316 226.3 96.074C224.645 97.8319 226.886 101.655 227.915 103.075C238.457 117.558 250.165 131.255 261.362 145.263C266.809 152.064 272.243 158.834 277.66 165.647C282.133 171.253 286.885 177.028 286.265 184.61L288.03 182.42C271.37 183.685 254.668 184.403 237.922 184.574C234.836 184.615 236.69 189.757 237.421 191.05C238.816 193.556 241.396 196.468 244.524 196.445L244.487 196.354Z" fill="white"/>
</svg>
